/* XPM */
static char *_f25deb2ce5940e7dcd5bbdea5e06581aBEGQvKknlBquNDD[] = {
/* columns rows colors chars-per-pixel */
"64 64 16 1 ",
"  c None",
". c #F7645D",
"X c #EE636D",
"o c #E5637B",
"O c #5F5FFF",
"+ c #6E5FF6",
"@ c #7B60EC",
"# c #BF62AE",
"$ c #B561B9",
"% c #DC6389",
"& c #D36296",
"* c #C962A2",
"= c #9F61CF",
"- c #9460D9",
"; c #AA61C4",
": c #8860E3",
/* pixels */
"%%%%%%%%%%%%%%%%%%%%%%%%%%%%%%%%%%%%%%%%%%%%%%%%%%%%%%%%%%%%%%%%",
"%%%%%%%%%%%%%%%%%%%%%%%%%%%%%%%%%%%%%%%%%%%%%%%%%%%%%%%%%%%%%%%%",
"%%%%%%%%%%%%%%%%%%%%%%%%%%%%%%%%%%%%%%%%%%%%%%%%%%%%%%%%%%%%%%%%",
"%%%                                                          %%%",
"%%%                                                          %%%",
"%%%                                                          %%%",
"%%%                                                          %%%",
"%%%                                                          %%%",
"%%%                                                          %%%",
"%%%                                                          %%%",
"%%%                                                          %%%",
"%%%                                                          %%%",
"%%%                                                          %%%",
"%%%                                                          %%%",
"%%%                                                          %%%",
"%%%                                                          %%%",
"%%%                                                          %%%",
"%%%                                                          %%%",
"%%%                                                          %%%",
"%%%                                                          %%%",
"%%%                                                          %%%",
"%%%                                                          %%%",
"%%%                                                          %%%",
"%%%                                                          %%%",
"%%%                                                          %%%",
"%%%                                                          %%%",
"%%%                                                          %%%",
"%%%                                                          %%%",
"%%%                                                          %%%",
"%%%                                                          %%%",
"%%%                                                          %%%",
"%%%                                                          %%%",
"%%%                                                          %%%",
"%%%                                                          %%%",
"%%%                                                          %%%",
"%%%                                                          %%%",
"%%%                                                          %%%",
"%%%                                                          %%%",
"%%%                                                          %%%",
"%%%                                                          %%%",
"%%%                                                          %%%",
"%%%                                                          %%%",
"%%%                                                          %%%",
"%%%                                                          %%%",
"%%%                                                          %%%",
"%%%                                                          %%%",
"%%%                                                          %%%",
"%%%                                                          %%%",
"%%%                                                          %%%",
"%%%                                                          %%%",
"%%%                                                          %%%",
"%%%                                                          %%%",
"%%%                                                          %%%",
"%%%                                                          %%%",
"%%%                                                          %%%",
"%%%                                                          %%%",
"%%%                                                          %%%",
"%%%                                                          %%%",
"%%%                                                          %%%",
"%%%                                                          %%%",
"%%%                                                          %%%",
"%%%%%%%%%%%%%%%%%%%%%%%%%%%%%%%%%%%%%%%%%%%%%%%%%%%%%%%%%%%%%%%%",
"%%%%%%%%%%%%%%%%%%%%%%%%%%%%%%%%%%%%%%%%%%%%%%%%%%%%%%%%%%%%%%%%",
"%%%%%%%%%%%%%%%%%%%%%%%%%%%%%%%%%%%%%%%%%%%%%%%%%%%%%%%%%%%%%%%%"
};
